<svg viewBox="0 0 151.89 29.12" xmlns="http://www.w3.org/2000/svg"><g fill="#3e3a39"><path d="m14.84 22.65c0 .2-.13.3-.4.3h-2.38c-.27 0-.49-.1-.67-.3l-8.61-10.47v10.17c0 .16-.05.31-.15.43s-.23.18-.4.18h-1.68c-.16 0-.3-.06-.4-.18s-.15-.26-.15-.43v-21.5c0-.16.06-.3.17-.41s.25-.17.41-.17h1.62c.16 0 .3.06.41.17s.17.25.17.41v9.86l8.79-10.16c.1-.1.19-.17.26-.21s.19-.06.35-.06h2.2c.28 0 .43.11.43.34 0 .12-.04.22-.12.31l-9.19 10.36 9.19 10.99c.1.1.15.23.15.37z"/><path d="m28.77 22.77c-.12.12-.27.18-.43.18h-1.4c-.16 0-.31-.06-.43-.18s-.18-.26-.18-.43v-.67c-.73.43-1.48.78-2.26 1.07-.77.28-1.59.42-2.44.42-.65 0-1.28-.08-1.88-.23s-1.13-.42-1.59-.81-.83-.9-1.1-1.53-.41-1.43-.41-2.38v-.37c0-.83.13-1.56.38-2.17s.67-1.12 1.25-1.54 1.34-.73 2.27-.93c.94-.2 2.09-.31 3.45-.31h2.26v-1.22c0-1.28-.24-2.18-.73-2.69s-1.33-.76-2.53-.76c-1 0-1.87.03-2.63.08-.75.05-1.43.11-2.04.17h-.15c-.14 0-.27-.03-.38-.09s-.17-.19-.17-.4v-1.07c0-.33.21-.52.64-.58.63-.1 1.32-.19 2.06-.27s1.63-.12 2.67-.12c2.12 0 3.64.5 4.56 1.51.93 1.01 1.39 2.42 1.39 4.23v10.65c0 .16-.06.31-.18.43zm-2.5-7.94h-2.26c-.92 0-1.68.06-2.29.17s-1.09.29-1.44.52-.59.54-.73.92-.21.84-.21 1.39v.37c0 1.1.25 1.84.73 2.21.49.38 1.18.56 2.08.56.71 0 1.39-.1 2.05-.3.65-.2 1.34-.51 2.08-.91v-4.92z"/><path d="m44.4 22.56c0 .26-.11.39-.34.39h-2.2c-.16 0-.29-.03-.38-.08s-.2-.16-.32-.32l-6.07-7.51v7.3c0 .16-.06.31-.18.43s-.26.18-.43.18h-1.46c-.16 0-.31-.06-.43-.18s-.18-.26-.18-.43v-21.73c0-.16.06-.31.18-.43s.26-.18.43-.18h1.46c.16 0 .31.06.43.18s.18.27.18.43v12.7l6.1-6.87c.1-.1.19-.17.26-.21s.19-.06.35-.06h2.14c.3 0 .46.11.46.34 0 .12-.05.23-.15.33l-6.71 7.27 6.78 8.18c.06.06.09.15.09.28z"/><path d="m58.18 22.77c-.12.12-.26.18-.43.18h-1.4c-.16 0-.31-.06-.43-.18s-.18-.26-.18-.43v-.67c-.73.43-1.48.78-2.26 1.07-.77.28-1.59.42-2.44.42-.65 0-1.28-.08-1.88-.23s-1.13-.42-1.59-.81-.82-.9-1.1-1.53-.41-1.43-.41-2.38v-.37c0-.83.13-1.56.38-2.17s.67-1.12 1.25-1.54 1.34-.73 2.27-.93c.94-.2 2.09-.31 3.45-.31h2.26v-1.22c0-1.28-.24-2.18-.73-2.69s-1.33-.76-2.53-.76c-1 0-1.87.03-2.63.08-.75.05-1.43.11-2.04.17h-.15c-.14 0-.27-.03-.38-.09s-.17-.19-.17-.4v-1.07c0-.33.21-.52.64-.58.63-.1 1.32-.19 2.06-.27s1.63-.12 2.67-.12c2.12 0 3.64.5 4.56 1.51.93 1.01 1.39 2.42 1.39 4.23v10.65c0 .16-.06.31-.18.43zm-2.5-7.94h-2.26c-.92 0-1.68.06-2.29.17s-1.09.29-1.44.52-.59.54-.73.92-.21.84-.21 1.39v.37c0 1.1.25 1.84.73 2.21.49.38 1.18.56 2.08.56.71 0 1.39-.1 2.04-.3s1.34-.51 2.08-.91v-4.92z"/><path d="m74.41 18.77c-.29.92-.71 1.7-1.28 2.35s-1.28 1.15-2.14 1.51-1.84.53-2.96.53-2.1-.18-2.95-.53c-.84-.36-1.55-.86-2.12-1.51s-1-1.44-1.28-2.35c-.29-.92-.43-1.93-.43-3.05v-2.32c0-1.12.14-2.14.43-3.05.28-.92.71-1.7 1.28-2.35s1.28-1.16 2.12-1.51c.84-.36 1.83-.53 2.95-.53s2.11.18 2.96.53c.85.36 1.57.86 2.14 1.51s1 1.43 1.28 2.35c.28.91.43 1.93.43 3.05v2.32c0 1.12-.14 2.14-.43 3.05zm-2.26-5.37c0-1.57-.33-2.81-.98-3.73s-1.7-1.37-3.14-1.37-2.46.45-3.12 1.36c-.65.91-.98 2.15-.98 3.74v2.32c0 1.57.32 2.81.96 3.72.64.92 1.68 1.37 3.13 1.37s2.47-.45 3.13-1.36.99-2.15.99-3.74v-2.32z"/><path d="m92.66 16.55c0 .81-.14 1.62-.43 2.41s-.76 1.51-1.42 2.14-1.52 1.14-2.58 1.54-2.36.6-3.91.6c-1.22 0-2.29-.06-3.22-.18s-1.78-.29-2.55-.49c-.16-.04-.3-.11-.43-.22-.12-.1-.18-.23-.18-.4v-2.99c0-.22.05-.38.15-.46s.23-.12.4-.12h.09c.31.02.73.06 1.27.11s1.09.09 1.66.12 1.11.06 1.63.09.93.05 1.24.05c1.06 0 1.77-.17 2.15-.52s.56-.89.56-1.62c0-.45-.14-.83-.41-1.14s-.81-.71-1.6-1.18l-4.21-2.5c-.71-.43-1.3-.86-1.76-1.31s-.82-.92-1.1-1.41-.47-.99-.58-1.51-.17-1.05-.17-1.6c0-.83.13-1.62.38-2.35s.69-1.36 1.3-1.89 1.42-.95 2.41-1.25c1-.31 2.24-.46 3.72-.46.55 0 1.15.02 1.79.06s1.26.09 1.85.15 1.14.13 1.65.21.9.16 1.19.24c.12.04.23.1.32.18s.14.2.14.37v3.08c0 .14-.04.26-.11.37-.07.1-.21.15-.41.15h-.06c-.2-.02-.56-.05-1.07-.08s-1.08-.07-1.71-.11-1.27-.08-1.92-.11-1.24-.05-1.77-.05c-.88 0-1.49.13-1.85.4-.36.26-.54.67-.54 1.22 0 .43.14.78.41 1.05.28.28.82.64 1.63 1.08l3.91 2.11c1.59.86 2.67 1.79 3.25 2.81s.87 2.15.87 3.39z"/><path d="m104.14 22.99c-.47.08-.88.14-1.22.18-.35.04-.74.06-1.19.06-.83 0-1.56-.07-2.2-.21s-1.17-.4-1.59-.78c-.43-.38-.75-.91-.97-1.59s-.33-1.56-.33-2.64v-8.85l-2.44-.4c-.16-.04-.31-.12-.44-.23s-.2-.25-.2-.41v-2.01c0-.16.07-.31.2-.44s.28-.2.44-.2h2.44v-2.51c0-.16.06-.29.18-.4.12-.1.26-.17.42-.21l3.7-.64h.09c.16 0 .29.05.4.14.1.09.15.22.15.38v3.24h2.5c.17 0 .31.06.43.19.12.12.18.27.18.43v2.49c0 .16-.06.31-.18.43s-.26.18-.43.18h-2.5v8.88c0 .61.05 1 .15 1.18.1.17.38.26.85.26h1.49c.43 0 .64.17.64.52v2.36c0 .34-.19.54-.58.6z"/><path d="m121.03 18.59c-.33.98-.82 1.81-1.46 2.49s-1.44 1.21-2.38 1.59c-.95.38-2.04.56-3.28.56s-2.33-.19-3.28-.56c-.95-.38-1.74-.9-2.39-1.59-.65-.68-1.14-1.51-1.48-2.49s-.5-2.08-.5-3.29v-2.14c0-1.22.17-2.32.5-3.3.34-.98.83-1.81 1.48-2.49s1.45-1.21 2.39-1.59c.95-.38 2.04-.57 3.28-.57s2.34.19 3.28.57c.95.38 1.74.91 2.38 1.59s1.13 1.51 1.46 2.49c.34.98.5 2.08.5 3.3v2.14c0 1.22-.17 2.32-.5 3.29zm-4.44-5.43c0-2.48-.89-3.72-2.69-3.72-.88 0-1.56.31-2.02.93s-.69 1.55-.69 2.79v2.14c0 1.24.23 2.18.69 2.81s1.14.95 2.02.95c1.79 0 2.69-1.25 2.69-3.75v-2.14z"/><path d="m133.6 9.16c-.08.12-.19.19-.34.19h-.24c-.75 0-1.46.1-2.11.3s-1.26.46-1.83.76v11.91c0 .16-.06.31-.18.44s-.26.2-.43.2h-3.7c-.16 0-.31-.07-.44-.2s-.2-.28-.2-.44v-16.24c0-.16.06-.31.18-.43s.27-.18.43-.18h3.63c.16 0 .31.06.43.19.12.12.19.27.19.43v.62c.57-.47 1.21-.83 1.94-1.09.72-.26 1.45-.38 2.18-.38.16 0 .3.06.43.19.12.12.18.27.18.43v2.92c0 .14-.04.28-.12.4z"/><path d="m151.89 6.01s0 .07-.02.08c0 .01-.02.04-.02.08l-5.13 17.98c-.24.83-.52 1.56-.82 2.18s-.7 1.13-1.19 1.54-1.11.72-1.86.93-1.69.32-2.81.32c-.29 0-.6-.01-.95-.05-.35-.03-.69-.07-1.04-.11s-.67-.09-.98-.15c-.3-.06-.55-.12-.73-.18-.16-.06-.31-.13-.44-.2s-.2-.19-.2-.35v-2.47c0-.16.06-.3.18-.41s.26-.17.43-.17h.06c.24.02.54.04.87.06s.68.05 1.04.08.7.06 1.04.08c.33.02.62.03.87.03.55 0 .98-.11 1.28-.33.31-.22.55-.64.73-1.25l.28-.94h-.46c-.29 0-.55-.03-.81-.08s-.51-.17-.75-.35c-.25-.18-.47-.46-.69-.84-.21-.38-.41-.9-.6-1.57l-4.03-13.74c-.02-.06-.03-.13-.03-.21 0-.33.2-.49.61-.49h4.06c.16 0 .29.06.38.17s.16.25.2.41l2.75 11.48c.08.39.2.58.37.58h.28l2.84-12.06c.04-.16.12-.3.23-.41s.25-.17.41-.17h4.06c.16 0 .3.05.41.15s.17.23.17.4z"/></g></svg>